<?xml version="1.0" standalone="no"?>
<!DOCTYPE svg PUBLIC "-//W3C//DTD SVG 20010904//EN"
 "http://www.w3.org/TR/2001/REC-SVG-20010904/DTD/svg10.dtd">
<svg version="1.0" xmlns="http://www.w3.org/2000/svg"
 width="512.000000pt" height="512.000000pt" viewBox="0 0 512.000000 512.000000"
 preserveAspectRatio="xMidYMid meet">

<g transform="translate(0.000000,512.000000) scale(0.100000,-0.100000)"
fill="#000000" stroke="none">
<path d="M1443 5106 c-23 -7 -64 -26 -90 -42 -42 -24 -58 -28 -148 -30 -334
-8 -647 -145 -895 -394 -107 -107 -218 -258 -282 -384 l-31 -61 6 -135 c10
-225 46 -319 172 -445 130 -130 320 -220 520 -246 l91 -12 23 -79 c13 -43 41
-108 63 -144 21 -37 38 -76 38 -89 0 -12 -11 -78 -25 -146 -99 -490 -288 -919
-591 -1345 -74 -103 -87 -165 -58 -263 12 -43 32 -70 107 -149 766 -805 1634
-1212 2418 -1131 551 56 1114 324 1661 790 105 89 392 372 429 422 15 21 33
63 40 93 20 88 2 143 -89 271 -246 348 -430 746 -531 1148 -26 107 -61 282
-61 310 0 13 17 52 38 89 22 36 50 101 63 145 l24 79 65 7 c279 30 553 192
650 386 45 89 61 160 67 309 l6 135 -31 61 c-103 205 -302 433 -479 551 -214
143 -450 220 -691 227 -99 2 -111 5 -161 34 -106 60 -224 67 -322 17 l-50 -25
-95 25 c-52 13 -130 28 -172 31 l-78 7 -65 -58 c-93 -84 -202 -152 -281 -176
-56 -17 -87 -20 -161 -17 -141 7 -241 55 -391 189 l-70 62 -78 -7 c-42 -4
-120 -18 -172 -31 l-95 -25 -51 26 c-63 32 -174 41 -237 20z m163 -175 c106
-48 132 -176 53 -265 -33 -38 -88 -63 -93 -43 -16 56 -45 125 -82 196 -24 46
-44 87 -44 93 0 13 60 37 95 37 17 0 48 -8 71 -18z m411 2 c-4 -10 -16 -45
-28 -78 -31 -85 -31 -215 0 -307 12 -37 27 -70 32 -73 20 -13 6 -45 -66 -152
-50 -75 -75 -122 -75 -141 0 -95 226 -257 435 -314 116 -31 374 -31 490 0 212
58 435 218 435 314 0 19 -24 64 -70 134 -39 57 -73 111 -77 119 -3 8 5 36 17
62 39 83 55 186 41 272 -6 40 -20 94 -31 118 -27 61 -26 65 18 58 104 -17 133
-27 127 -44 -4 -9 -11 -40 -16 -68 -28 -148 70 -317 214 -372 39 -14 51 -24
49 -38 -1 -10 -6 -92 -10 -183 l-7 -165 -100 -63 c-253 -159 -699 -342 -835
-342 -136 0 -578 181 -835 342 l-100 63 -7 165 c-3 91 -8 174 -10 184 -2 14
10 23 52 39 75 28 170 122 193 192 26 75 30 143 13 205 -8 30 -13 56 -11 58 3
3 133 30 154 31 8 1 11 -5 8 -16z m1628 3 c19 -8 35 -19 35 -25 0 -5 -19 -44
-41 -86 -23 -42 -52 -106 -65 -143 -18 -52 -27 -66 -41 -64 -27 5 -65 35 -91
73 -20 29 -23 44 -20 94 5 74 33 119 92 146 50 22 85 24 131 5z m-2530 -105
c-30 -59 -137 -191 -207 -255 -157 -146 -353 -246 -566 -291 -86 -18 -102 -18
-102 -5 0 5 34 54 75 109 149 198 337 338 555 415 81 29 188 54 233 55 27 1
27 1 12 -28z m2985 14 c238 -50 439 -163 611 -341 77 -81 177 -219 166 -231
-10 -9 -171 25 -251 54 -157 56 -298 140 -414 249 -70 64 -177 196 -207 255
-15 27 -14 29 4 29 11 0 52 -7 91 -15z m-1772 -105 c85 -32 141 -42 232 -42
126 0 232 30 342 96 l57 34 12 -31 c7 -17 13 -61 13 -97 0 -52 -6 -78 -28
-123 l-27 -57 -369 0 -369 0 -27 57 c-22 45 -28 71 -28 123 0 36 6 80 13 97
l12 31 57 -34 c31 -19 80 -43 110 -54z m-982 -23 c94 -185 133 -562 79 -762
-77 -291 -290 -436 -620 -422 -266 11 -502 132 -585 300 -30 61 -60 218 -47
250 3 9 30 16 84 21 157 13 368 81 518 166 178 103 348 261 455 427 36 55 68
99 73 96 4 -2 24 -36 43 -76z m2701 -214 c140 -141 282 -238 454 -308 108 -44
263 -83 362 -91 54 -5 81 -12 84 -21 3 -8 1 -53 -6 -101 -22 -171 -108 -282
-286 -367 -119 -57 -196 -76 -340 -82 -329 -14 -543 132 -620 422 -38 141 -28
422 20 603 22 82 70 196 97 229 8 9 29 -15 79 -91 39 -59 107 -143 156 -193z
m-1052 -230 c28 -42 51 -79 53 -83 4 -11 -111 -88 -180 -120 -177 -81 -441
-80 -622 3 -71 34 -171 101 -171 116 0 4 23 42 50 84 l50 77 385 0 385 0 50
-77z m-1338 -419 c193 -123 509 -261 755 -329 l57 -15 3 -234 c3 -232 3 -235
27 -260 18 -19 35 -26 61 -26 26 0 43 7 61 26 24 25 24 28 27 260 l3 234 57
15 c242 67 564 207 755 329 31 20 60 36 64 36 4 0 16 -27 26 -59 48 -154 181
-307 333 -383 51 -26 126 -53 170 -63 111 -25 106 -22 99 -47 -33 -118 -141
-257 -243 -311 -29 -16 -197 -77 -375 -136 -454 -153 -706 -258 -841 -350
l-46 -32 0 103 c0 137 -11 175 -56 194 -29 12 -39 12 -68 0 -45 -19 -56 -57
-56 -194 l0 -103 -44 30 c-137 94 -386 198 -843 352 -178 59 -346 120 -375
136 -77 42 -162 132 -202 216 -19 40 -36 83 -38 96 -3 22 2 25 67 38 252 51
462 231 532 454 10 32 22 59 26 59 4 0 33 -16 64 -36z m-547 -968 l36 -24 23
-183 c26 -204 39 -244 96 -279 25 -16 35 -29 35 -47 0 -59 -33 -240 -60 -333
-17 -55 -30 -111 -30 -125 0 -71 63 -139 229 -250 81 -53 262 -154 302 -167 8
-3 6 -40 -9 -131 -21 -132 -19 -175 12 -218 38 -55 256 -228 407 -324 144 -91
370 -205 409 -205 36 0 245 102 381 186 120 74 306 215 385 291 85 81 90 101
63 267 -18 108 -19 131 -8 135 30 9 219 110 265 141 109 73 213 156 234 187
34 50 36 97 6 193 -33 111 -53 207 -62 301 l-6 76 34 21 c60 37 74 78 99 281
l23 183 38 26 c21 14 40 23 42 21 2 -2 13 -49 25 -104 97 -444 285 -879 545
-1258 103 -151 109 -163 101 -195 -8 -33 -197 -227 -365 -375 -567 -498 -1166
-778 -1724 -803 -655 -31 -1392 320 -2064 980 -160 157 -187 193 -178 231 3
13 40 72 82 132 257 367 444 784 550 1230 22 90 41 163 44 163 3 0 21 -11 40
-24z m506 -187 c504 -170 705 -267 846 -410 91 -93 105 -93 196 0 141 143 337
238 850 411 150 51 275 90 278 87 7 -7 -17 -222 -25 -236 -4 -6 -90 -38 -191
-71 -426 -142 -779 -309 -997 -475 -9 -7 -17 -7 -26 0 -7 6 -62 43 -123 83
-197 131 -502 268 -874 392 -102 34 -187 64 -189 66 -5 5 -30 187 -31 222 0
12 4 22 9 22 4 0 129 -41 277 -91z m126 -466 c11 -3 20 -21 25 -52 10 -58 11
-507 1 -517 -16 -15 -257 129 -356 213 l-33 28 21 60 c22 65 54 216 65 307 l6
57 127 -46 c70 -25 135 -47 144 -50z m1934 -86 c8 -48 26 -123 39 -165 29 -92
34 -83 -109 -181 -115 -78 -244 -147 -254 -136 -9 9 -9 480 1 526 6 29 14 37
45 49 20 7 84 30 142 50 l105 38 8 -47 c4 -25 14 -86 23 -134z m-1564 -73
c103 -52 215 -123 309 -196 141 -109 138 -109 261 -12 109 87 237 165 375 231
61 29 113 53 115 53 2 0 1 -88 -1 -196 -3 -214 8 -387 41 -593 l21 -135 -54
-50 c-110 -101 -340 -261 -477 -330 l-52 -26 0 187 c0 159 -3 193 -18 223 -33
66 -111 66 -144 0 -15 -30 -18 -64 -18 -223 l0 -189 -77 43 c-156 85 -347 219
-452 315 l-54 50 17 102 c34 209 48 391 44 608 l-3 212 47 -19 c26 -10 80 -35
120 -55z"/>
<path d="M2503 1596 c-26 -23 -28 -29 -28 -99 0 -66 3 -79 24 -101 18 -19 35
-26 61 -26 26 0 43 7 61 26 21 22 24 35 24 101 0 70 -2 76 -28 99 -16 13 -41
24 -57 24 -16 0 -41 -11 -57 -24z"/>
</g>
</svg>
