<?xml version="1.0" standalone="no"?>
<!DOCTYPE svg PUBLIC "-//W3C//DTD SVG 20010904//EN"
 "http://www.w3.org/TR/2001/REC-SVG-20010904/DTD/svg10.dtd">
<svg version="1.0" xmlns="http://www.w3.org/2000/svg"
 width="512.000000pt" height="512.000000pt" viewBox="0 0 512.000000 512.000000"
 preserveAspectRatio="xMidYMid meet">

<g transform="translate(0.000000,512.000000) scale(0.100000,-0.100000)"
fill="#000000" stroke="none">
<path d="M2527 5108 c-25 -9 -61 -76 -298 -550 -199 -399 -268 -546 -263 -562
3 -11 17 -32 30 -46 23 -24 30 -25 164 -28 l140 -4 0 -172 0 -172 -137 -17
c-236 -30 -449 -85 -656 -169 -54 -22 -100 -38 -101 -37 -3 5 -123 261 -142
307 l-15 33 124 58 c151 71 180 104 144 168 -14 25 -911 741 -945 754 -34 13
-86 -12 -100 -47 -6 -18 -15 -195 -21 -449 -6 -231 -14 -495 -18 -587 l-6
-167 31 -30 c17 -17 40 -31 52 -31 12 0 75 25 140 55 65 30 123 55 127 55 10
0 189 -378 182 -383 -60 -40 -223 -185 -307 -272 -285 -296 -488 -654 -618
-1090 -36 -117 -38 -222 -7 -281 64 -121 216 -175 335 -118 l35 16 741 -482
742 -482 0 -164 c0 -162 0 -165 25 -189 14 -15 35 -25 52 -24 15 0 105 31 198
68 l170 69 39 -44 c57 -67 106 -88 196 -89 64 0 82 4 122 27 25 15 61 46 80
67 l33 40 170 -69 c94 -38 183 -69 198 -70 17 0 38 10 52 25 25 24 25 27 25
188 l0 164 740 482 740 481 33 -17 c21 -11 55 -17 97 -17 147 1 254 107 253
254 -1 80 -49 249 -128 446 -158 395 -397 727 -711 990 -57 48 -104 89 -104
90 0 2 30 68 66 146 37 79 77 166 90 195 l23 52 131 -61 c139 -64 161 -67 200
-26 25 27 25 25 4 706 -16 557 -16 552 -71 573 -14 5 -35 7 -47 3 -22 -7 -864
-672 -926 -730 -26 -26 -34 -41 -34 -69 0 -48 18 -63 154 -125 63 -29 117 -54
119 -56 4 -4 -21 -61 -103 -237 l-55 -116 -63 28 c-200 91 -502 168 -765 196
l-63 7 0 174 0 174 118 0 c143 0 187 11 207 50 8 16 15 36 15 44 0 9 -119 254
-265 546 -251 502 -267 532 -300 546 -19 8 -36 14 -37 13 -2 0 -16 -5 -31 -11z
m221 -643 l182 -365 -370 0 -370 0 182 365 c101 201 185 365 188 365 3 0 87
-164 188 -365z m-1779 -319 c171 -137 310 -250 309 -251 -10 -9 -657 -305
-667 -305 -8 0 -10 11 -7 33 3 17 8 160 11 317 7 369 14 472 29 462 7 -4 153
-119 325 -256z m3535 -81 c3 -170 9 -349 12 -397 l7 -88 -169 78 c-440 204
-505 235 -502 243 2 4 145 120 318 258 253 201 316 247 321 233 3 -9 9 -156
13 -327z m-1854 -315 l0 -170 -85 0 -85 0 0 170 0 170 85 0 85 0 0 -170z
m-1483 -288 c40 -86 75 -164 78 -173 4 -12 -13 -27 -66 -58 -40 -22 -73 -40
-74 -39 -13 14 -164 353 -159 357 6 6 136 69 144 70 3 0 37 -70 77 -157z
m3006 89 c5 -5 -29 -90 -75 -189 l-83 -180 -60 34 c-33 19 -67 38 -74 43 -12
7 -6 27 34 113 27 56 63 136 81 175 l33 72 68 -30 c37 -17 72 -34 76 -38z
m-1299 -156 c481 -56 895 -223 1251 -505 171 -135 378 -371 505 -575 110 -177
225 -443 279 -646 27 -101 29 -115 17 -144 -17 -40 -62 -59 -105 -44 -24 8
-46 38 -108 140 -209 348 -454 633 -713 830 -414 316 -967 478 -1549 455 -347
-14 -641 -81 -936 -213 -433 -193 -812 -554 -1115 -1063 -35 -58 -72 -115 -83
-127 -24 -27 -81 -31 -114 -8 -38 26 -37 69 0 200 111 383 308 729 569 1000
378 394 867 629 1448 700 150 18 498 18 654 0z m-224 -1900 c0 -1349 2 -1293
-56 -1315 -15 -6 -40 -8 -56 -5 -62 14 -58 -71 -58 1302 l0 1253 85 0 85 0 0
-1235z m-350 578 l0 -648 -274 590 -275 590 51 17 c121 42 374 94 466 97 l32
1 0 -647z m755 611 c145 -28 311 -77 308 -90 -2 -11 -533 -1157 -539 -1163 -2
-2 -4 287 -4 643 l0 647 58 -6 c31 -4 111 -17 177 -31z m-1140 -835 c176 -379
320 -695 320 -701 0 -9 -144 -73 -150 -66 -2 2 -147 314 -324 693 l-320 690
72 37 c40 20 74 37 77 37 3 1 149 -310 325 -690z m1695 646 l69 -35 -33 -72
c-179 -392 -600 -1295 -605 -1301 -8 -8 -163 52 -157 62 1 3 146 315 322 694
175 378 322 687 326 687 5 0 40 -16 78 -35z m-2015 -767 c164 -354 305 -657
313 -675 14 -29 13 -33 -7 -58 -20 -26 -21 -39 -21 -216 0 -104 -3 -189 -6
-189 -6 0 -1343 867 -1358 881 -13 12 100 196 214 348 107 143 330 373 465
479 50 39 93 72 96 72 4 0 140 -289 304 -642z m2325 565 c118 -94 311 -288
410 -413 113 -143 282 -402 269 -414 -10 -9 -1335 -869 -1346 -873 -10 -4 -13
37 -13 185 0 175 -2 191 -20 215 l-21 26 292 628 c161 345 300 647 311 671 10
23 22 42 26 42 4 0 46 -30 92 -67z m-1620 -1647 l0 -334 -125 -50 -125 -51 2
337 3 336 115 47 c63 26 118 48 123 48 4 1 7 -149 7 -333z m646 286 l119 -48
3 -336 2 -337 -125 51 -125 50 0 334 c0 184 1 334 3 334 2 0 57 -22 123 -48z"/>
</g>
</svg>
