<?xml version="1.0" standalone="no"?>
<!DOCTYPE svg PUBLIC "-//W3C//DTD SVG 20010904//EN"
 "http://www.w3.org/TR/2001/REC-SVG-20010904/DTD/svg10.dtd">
<svg version="1.0" xmlns="http://www.w3.org/2000/svg"
 width="512.000000pt" height="512.000000pt" viewBox="0 0 512.000000 512.000000"
 preserveAspectRatio="xMidYMid meet">

<g transform="translate(0.000000,512.000000) scale(0.100000,-0.100000)"
fill="#000000" stroke="none">
<path d="M290 5104 c-99 -27 -174 -90 -218 -184 -22 -45 -26 -69 -26 -135 0
-147 -11 -134 530 -676 l476 -476 -64 -49 c-221 -169 -506 -433 -687 -639
-142 -161 -249 -297 -256 -327 -9 -35 7 -63 105 -183 258 -317 564 -610 899
-862 3 -2 -211 -221 -475 -486 -541 -543 -528 -526 -528 -667 0 -95 35 -180
101 -241 72 -66 122 -84 233 -84 155 0 133 -18 744 594 l528 528 89 -39 c311
-133 700 -193 1027 -157 203 22 474 94 632 166 l65 30 540 -538 c614 -611 591
-593 740 -593 97 0 170 29 235 94 65 65 95 138 95 235 0 148 23 120 -523 667
-267 268 -484 489 -481 491 343 260 604 508 865 821 125 151 147 185 140 220
-3 16 -41 72 -83 125 -238 298 -547 603 -841 830 l-83 64 475 476 c541 543
531 529 530 676 0 88 -19 144 -71 210 -63 80 -195 133 -296 120 -122 -16 -110
-6 -693 -588 l-542 -539 -98 40 c-539 221 -1085 221 -1628 0 l-98 -40 -542
539 c-589 588 -574 575 -701 587 -39 4 -79 0 -115 -10z m147 -164 c16 -6 473
-455 1048 -1030 561 -560 1032 -1024 1047 -1029 19 -7 37 -7 56 0 15 5 486
469 1047 1029 575 575 1032 1024 1048 1030 78 29 167 -6 204 -80 28 -54 29
-99 4 -148 -11 -21 -464 -481 -1035 -1052 -707 -706 -1017 -1023 -1021 -1042
-4 -15 -1 -37 5 -50 7 -13 473 -484 1035 -1048 911 -912 1024 -1029 1030
-1062 23 -126 -87 -229 -208 -198 -37 10 -153 122 -1072 1041 -971 970 -1032
1029 -1065 1029 -33 0 -94 -59 -1065 -1029 -919 -919 -1035 -1031 -1072 -1041
-121 -31 -231 72 -208 198 6 33 119 150 1030 1062 562 564 1028 1036 1035
1048 6 13 9 36 5 50 -4 18 -353 375 -1030 1052 -577 577 -1029 1037 -1035
1053 -49 132 85 266 217 217z m2284 -920 c190 -20 436 -80 573 -141 l49 -21
-238 -238 -237 -237 -61 19 c-104 32 -234 44 -340 30 -52 -6 -121 -20 -154
-30 l-61 -19 -238 238 -237 237 39 17 c167 72 367 120 619 149 66 7 188 5 286
-4z m-1522 -534 l23 -25 -20 -28 c-37 -53 -122 -231 -152 -323 -63 -187 -74
-263 -75 -505 0 -194 3 -232 23 -323 41 -182 103 -343 189 -485 l36 -59 -25
-25 -25 -24 -74 58 c-296 229 -552 476 -782 752 l-87 104 47 56 c265 315 533
575 826 802 34 26 65 48 68 48 3 1 16 -10 28 -23z m2834 -38 c266 -203 547
-476 810 -789 l47 -56 -87 -104 c-229 -276 -486 -523 -782 -752 l-74 -58 -25
24 -25 25 37 61 c82 134 153 320 192 501 29 132 27 488 -4 623 -39 175 -133
409 -204 510 l-20 28 23 25 c12 13 24 24 26 24 2 0 41 -28 86 -62z m-2280
-621 c-44 -150 -41 -334 8 -474 l19 -57 -217 -218 c-119 -119 -220 -215 -223
-213 -14 8 -99 194 -129 277 -35 101 -67 264 -76 388 -17 233 60 561 180 765
l27 48 217 -217 218 -217 -24 -82z m2078 421 c171 -336 201 -732 83 -1088 -32
-95 -118 -285 -134 -295 -3 -2 -104 94 -223 213 l-217 218 20 59 c34 98 46
229 32 340 -7 53 -21 122 -32 153 l-19 57 217 218 c244 244 218 232 273 125z
m-1119 6 c15 -8 6 -21 -67 -94 l-85 -85 -85 85 c-46 46 -83 86 -80 88 21 22
281 26 317 6z m-714 -740 l-86 -87 -12 59 c-13 60 -9 231 6 267 6 16 20 6 93
-67 l86 -86 -87 -86z m1229 128 c3 -59 1 -120 -7 -156 l-12 -59 -86 87 -87 86
85 85 c99 100 99 99 107 -43z m-578 -606 l84 -84 -49 -9 c-27 -4 -83 -8 -124
-8 -41 0 -97 4 -124 8 l-49 9 84 84 c46 46 86 84 89 84 3 0 43 -38 89 -84z
m-294 -246 c148 -38 305 -35 449 10 l61 20 239 -239 239 -239 -81 -31 c-213
-82 -414 -122 -652 -128 -263 -8 -477 28 -723 120 l-109 40 239 239 c163 163
243 236 253 232 8 -3 47 -14 85 -24z"/>
</g>
</svg>
