<?xml version="1.0" standalone="no"?>
<!DOCTYPE svg PUBLIC "-//W3C//DTD SVG 20010904//EN"
 "http://www.w3.org/TR/2001/REC-SVG-20010904/DTD/svg10.dtd">
<svg version="1.0" xmlns="http://www.w3.org/2000/svg"
 width="512.000000pt" height="512.000000pt" viewBox="0 0 512.000000 512.000000"
 preserveAspectRatio="xMidYMid meet">

<g transform="translate(0.000000,512.000000) scale(0.100000,-0.100000)"
fill="#000000" stroke="none">
<path d="M1265 5104 c-115 -25 -245 -95 -329 -178 -126 -123 -192 -264 -204
-436 l-7 -95 -95 -7 c-172 -12 -313 -78 -436 -204 -256 -261 -256 -683 1 -945
145 -148 322 -217 525 -206 111 7 176 24 284 78 57 29 86 38 105 34 16 -3 62
-41 109 -88 l83 -83 -30 -64 c-108 -241 -163 -563 -141 -835 29 -358 139 -651
353 -945 89 -121 840 -876 936 -940 208 -139 431 -200 686 -187 402 21 794
179 1150 463 292 234 505 493 655 799 270 548 279 1052 27 1430 -22 34 -203
224 -413 435 l-372 375 33 48 c53 78 80 175 79 287 0 81 -6 113 -38 215 -80
258 -87 505 -20 715 30 96 30 125 -1 155 -29 30 -49 31 -151 4 -281 -72 -472
-260 -506 -496 -14 -99 -1 -185 65 -428 25 -88 43 -161 42 -163 -1 -1 -35 11
-76 27 -41 16 -87 33 -104 38 -27 9 -30 14 -29 49 2 75 -16 183 -46 286 -75
252 -79 513 -10 712 27 78 26 111 -5 141 -31 32 -60 32 -169 0 -235 -68 -400
-206 -463 -385 -49 -143 -40 -254 43 -549 24 -84 44 -157 44 -161 0 -4 -39
-10 -87 -14 -165 -12 -395 -71 -543 -137 l-64 -30 -83 83 c-47 47 -85 93 -88
109 -4 19 5 48 34 105 54 108 71 173 78 284 17 312 -176 591 -474 687 -100 32
-247 39 -348 17z m253 -169 c104 -25 170 -62 248 -139 128 -128 176 -283 144
-457 -6 -30 -31 -96 -55 -148 -55 -114 -63 -159 -41 -235 14 -47 30 -71 93
-137 42 -44 74 -82 71 -85 -3 -2 -39 -28 -81 -57 -197 -136 -320 -264 -501
-522 -13 -19 -17 -17 -94 57 -67 64 -91 80 -138 94 -76 22 -125 14 -224 -36
-134 -67 -240 -84 -362 -59 -167 35 -322 171 -378 333 -82 239 29 514 250 623
83 41 136 52 236 53 128 0 234 -41 352 -135 53 -43 84 -44 123 -6 51 51 35
100 -55 168 -34 25 -94 61 -133 81 l-73 34 0 72 c0 138 52 266 148 361 127
128 302 180 470 140z m1664 -112 c-10 -63 -12 -136 -9 -253 6 -173 20 -252 74
-415 34 -102 35 -194 3 -279 -28 -73 -115 -163 -199 -205 l-59 -30 16 47 c10
31 15 87 15 167 0 126 0 129 -100 490 -17 62 -25 118 -26 180 -1 79 2 97 26
151 35 76 110 152 197 199 36 19 68 35 71 35 3 0 -1 -39 -9 -87z m826 -133
c-7 -25 -12 -129 -12 -235 -1 -206 9 -274 64 -450 38 -123 43 -155 30 -227
-14 -74 -38 -125 -86 -178 -37 -41 -124 -103 -167 -119 l-25 -10 16 47 c10 32
15 85 15 167 0 127 5 102 -95 473 -61 228 -39 354 83 466 48 45 176 123 185
113 2 -1 -2 -23 -8 -47z m-1154 -897 c-24 -109 -48 -166 -98 -232 -32 -44 -33
-82 -2 -118 31 -36 77 -35 196 2 139 44 253 109 335 189 39 39 78 82 87 96
l15 25 59 -19 c32 -10 98 -36 146 -59 83 -37 87 -41 82 -66 -15 -67 -38 -124
-79 -192 -25 -41 -45 -84 -45 -95 0 -30 35 -71 68 -79 41 -9 192 38 307 95
l100 49 150 -151 c83 -83 143 -148 133 -145 -9 3 -70 11 -136 17 -271 26 -570
-40 -899 -200 -244 -119 -430 -257 -639 -473 -310 -320 -514 -688 -595 -1073
-19 -90 -23 -141 -24 -289 0 -99 3 -202 7 -230 l8 -50 -173 175 c-95 96 -202
215 -239 264 -161 215 -267 474 -309 751 -15 102 -15 336 0 440 76 511 375
945 826 1199 192 108 476 191 668 195 l57 1 -6 -27z m1462 -873 c106 -27 243
-95 331 -164 253 -199 358 -568 272 -962 -80 -369 -275 -719 -558 -1004 -311
-312 -682 -522 -1056 -597 -121 -24 -381 -24 -477 0 -344 85 -560 304 -634
643 -24 108 -24 327 0 454 73 387 297 777 630 1098 270 260 590 437 941 521
186 45 401 49 551 11z"/>
<path d="M3569 2051 c-167 -57 -314 -171 -415 -322 -140 -210 -150 -439 -26
-580 17 -20 60 -51 94 -70 60 -33 68 -34 168 -34 89 0 117 4 187 28 236 81
426 294 493 552 36 137 7 260 -84 350 -76 76 -132 99 -241 102 -77 2 -102 -1
-176 -26z m265 -170 c74 -46 96 -156 53 -274 -36 -99 -73 -155 -154 -234 -139
-136 -312 -195 -426 -145 -155 68 -117 311 78 508 149 151 339 212 449 145z"/>
</g>
</svg>
