<?xml version="1.0" standalone="no"?>
<!DOCTYPE svg PUBLIC "-//W3C//DTD SVG 20010904//EN"
 "http://www.w3.org/TR/2001/REC-SVG-20010904/DTD/svg10.dtd">
<svg version="1.0" xmlns="http://www.w3.org/2000/svg"
 width="512.000000pt" height="512.000000pt" viewBox="0 0 512.000000 512.000000"
 preserveAspectRatio="xMidYMid meet">

<g transform="translate(0.000000,512.000000) scale(0.100000,-0.100000)"
fill="#000000" stroke="none">
<path d="M2385 5114 c-110 -12 -297 -49 -403 -79 -533 -152 -1089 -520 -1603
-1061 -222 -234 -379 -430 -379 -474 0 -78 465 -593 749 -830 l102 -85 -6
-105 c-22 -373 -64 -621 -150 -870 -59 -171 -66 -192 -81 -268 -42 -214 7
-384 146 -516 78 -74 152 -111 259 -133 259 -54 535 131 590 395 25 122 6 259
-65 458 -56 159 -98 316 -124 468 -18 109 -25 186 -16 186 2 0 73 -33 157 -74
226 -109 500 -197 687 -222 61 -8 57 11 41 -212 -22 -315 -70 -561 -160 -815
-100 -285 -104 -445 -17 -610 66 -124 206 -227 346 -256 313 -65 612 180 612
500 0 98 -24 209 -79 366 -62 176 -105 349 -130 528 -19 133 -41 380 -41 457
l0 36 56 7 c179 22 475 118 690 224 l154 76 0 -36 c0 -109 -72 -418 -144 -622
-71 -200 -90 -337 -65 -459 55 -264 331 -449 589 -396 106 22 184 62 261 135
172 163 204 383 97 683 -110 309 -154 530 -179 898 l-12 173 39 32 c164 134
428 392 575 562 155 180 239 294 239 325 0 90 -519 646 -854 916 -466 374
-913 595 -1366 674 -122 21 -414 35 -515 24z m455 -193 c189 -38 353 -106 523
-217 122 -79 316 -269 391 -382 115 -174 193 -362 233 -559 27 -133 24 -414
-5 -550 -125 -580 -548 -1006 -1130 -1136 -141 -31 -443 -31 -584 0 -187 42
-346 108 -493 204 -331 215 -551 537 -637 932 -32 146 -32 426 0 574 97 451
379 812 798 1021 121 61 289 107 489 136 67 10 324 -4 415 -23z m-1563 -433
c-138 -171 -255 -426 -308 -678 -31 -143 -33 -445 -5 -595 25 -136 85 -314
145 -434 48 -98 134 -234 174 -278 94 -105 -280 176 -518 388 -199 177 -565
571 -565 608 0 14 133 173 259 310 191 207 484 463 741 646 57 41 106 75 108
75 2 0 -12 -19 -31 -42z m2818 -163 c169 -131 392 -333 524 -473 144 -154 279
-309 293 -339 10 -20 0 -35 -88 -140 -196 -232 -457 -486 -695 -675 -108 -85
-291 -218 -301 -218 -4 0 15 30 43 67 135 181 236 417 286 668 13 69 18 137
17 290 0 220 -15 318 -75 500 -42 130 -148 336 -224 438 l-66 89 88 -61 c48
-33 138 -99 198 -146z m-2977 -1940 c96 -63 102 -73 102 -154 0 -141 79 -501
160 -730 99 -283 90 -435 -36 -551 -142 -131 -351 -126 -480 12 -115 123 -122
259 -28 533 104 302 174 656 174 883 0 41 4 72 9 70 4 -1 49 -30 99 -63z
m2992 -8 c0 -225 68 -572 169 -867 78 -227 89 -348 43 -453 -74 -166 -283
-249 -444 -175 -116 54 -195 159 -205 276 -8 85 10 174 72 357 84 249 134 473
150 670 11 135 7 128 108 200 51 35 95 64 100 65 4 0 7 -33 7 -73z m-1456
-604 c26 -409 74 -666 179 -964 51 -143 72 -254 64 -334 -12 -115 -86 -218
-195 -272 -49 -24 -69 -28 -142 -28 -73 0 -93 4 -142 28 -154 75 -223 227
-188 414 7 37 33 124 57 193 106 298 153 555 179 963 l7 107 87 0 87 0 7 -107z"/>
<path d="M2062 4259 c-101 -20 -193 -95 -240 -198 -22 -46 -26 -71 -26 -136 0
-117 48 -212 139 -275 l42 -29 -9 -53 c-19 -115 21 -286 92 -395 108 -164 308
-273 500 -273 190 0 391 108 496 267 21 31 51 96 68 143 73 211 17 449 -144
610 -63 63 -146 115 -229 145 -66 23 -189 36 -256 26 -40 -6 -61 -5 -64 2 -8
21 -87 100 -124 124 -40 25 -136 54 -177 52 -14 -1 -44 -5 -68 -10z m113 -170
c75 -20 125 -86 125 -164 0 -95 -71 -167 -165 -167 -97 0 -170 71 -169 166 0
97 53 154 164 175 3 0 23 -4 45 -10z m511 -185 c108 -29 215 -125 265 -238
132 -300 -137 -646 -458 -587 -139 25 -244 101 -306 219 -41 78 -63 184 -50
246 8 38 10 40 63 51 71 14 115 37 168 89 53 50 82 103 97 176 11 54 12 55 51
60 50 7 105 2 170 -16z"/>
</g>
</svg>
