<?xml version="1.0" standalone="no"?>
<!DOCTYPE svg PUBLIC "-//W3C//DTD SVG 20010904//EN"
 "http://www.w3.org/TR/2001/REC-SVG-20010904/DTD/svg10.dtd">
<svg version="1.0" xmlns="http://www.w3.org/2000/svg"
 width="512.000000pt" height="512.000000pt" viewBox="0 0 512.000000 512.000000"
 preserveAspectRatio="xMidYMid meet">

<g transform="translate(0.000000,512.000000) scale(0.100000,-0.100000)"
fill="#000000" stroke="none">
<path d="M715 4988 c-376 -384 -607 -786 -661 -1150 -41 -283 42 -544 236
-738 139 -139 299 -214 512 -241 46 -6 84 -11 85 -13 2 -1 -13 -49 -32 -107
-135 -401 -174 -839 -104 -1183 165 -814 851 -1417 1678 -1475 851 -61 1629
467 1889 1280 129 404 110 894 -53 1378 -19 58 -34 106 -32 107 1 2 39 7 85
13 213 27 373 102 512 241 194 194 277 455 236 738 -54 363 -285 766 -661
1150 -173 176 -156 177 -335 -5 -75 -76 -166 -176 -204 -223 -112 -140 -243
-344 -309 -480 -34 -71 -65 -129 -68 -130 -4 0 -26 26 -50 57 -237 308 -786
891 -856 909 -13 4 -33 4 -45 0 -32 -8 -285 -253 -459 -443 -142 -155 -297
-337 -393 -460 -27 -35 -52 -63 -55 -63 -3 1 -34 59 -68 130 -66 136 -197 340
-309 480 -38 47 -129 147 -204 223 -179 182 -162 181 -335 5z m280 -187 c237
-265 401 -516 483 -744 l29 -79 -113 -169 c-137 -206 -243 -391 -349 -612 -91
-190 -86 -186 -213 -173 -168 17 -306 80 -418 191 -249 246 -268 594 -57 1009
65 127 180 302 280 426 57 71 240 270 248 270 1 0 51 -54 110 -119z m1721 -33
c770 -784 1290 -1614 1458 -2328 59 -247 78 -562 48 -755 -89 -552 -419 -1008
-909 -1254 -271 -136 -591 -199 -882 -173 -164 15 -256 33 -404 83 -404 133
-734 410 -945 791 -79 143 -154 368 -184 553 -18 116 -15 406 6 542 107 699
539 1483 1253 2280 110 123 393 413 403 413 4 0 74 -69 156 -152z m1774 -128
c224 -281 363 -553 405 -794 31 -178 14 -304 -61 -456 -103 -208 -301 -341
-546 -366 -126 -13 -123 -14 -203 153 -102 216 -221 425 -354 625 l-118 176
29 79 c83 229 246 479 484 745 l108 120 86 -88 c47 -49 124 -136 170 -194z"/>
<path d="M2424 4548 c-259 -267 -684 -795 -684 -850 0 -45 39 -87 80 -88 40 0
63 22 156 148 160 215 361 454 550 654 103 109 114 124 114 157 0 49 -33 81
-82 81 -31 0 -45 -11 -134 -102z"/>
<path d="M2330 3250 c-446 -95 -783 -412 -906 -851 -22 -79 -27 -121 -31 -264
-6 -195 9 -293 70 -453 85 -227 264 -450 454 -565 l52 -32 1 -91 c0 -52 7
-113 16 -143 18 -61 69 -123 128 -154 40 -22 49 -22 446 -22 397 0 406 0 446
22 59 31 110 93 128 154 9 30 16 92 17 143 l0 91 71 45 c152 96 322 296 403
475 75 163 106 312 106 501 -1 555 -393 1033 -938 1143 -132 27 -340 28 -463
1z m335 -150 c346 -40 643 -247 795 -555 163 -330 136 -709 -70 -1016 -62 -92
-182 -208 -275 -267 -140 -88 -135 -80 -135 -227 0 -192 -3 -194 -197 -195
l-143 0 0 100 c0 94 -2 103 -25 125 -15 16 -36 25 -55 25 -19 0 -40 -9 -55
-25 -23 -22 -25 -31 -25 -125 l0 -100 -142 0 c-195 1 -198 3 -198 195 0 147 5
139 -135 227 -92 59 -213 175 -274 266 -252 374 -233 853 47 1203 160 200 410
339 663 368 105 12 123 12 224 1z"/>
<path d="M2050 2171 c-40 -13 -93 -42 -125 -69 -151 -126 -158 -363 -14 -497
72 -68 126 -88 229 -88 101 0 155 20 226 85 172 159 133 436 -78 544 -42 22
-70 28 -133 30 -44 2 -91 0 -105 -5z m181 -184 c39 -25 79 -97 79 -141 0 -51
-38 -114 -84 -141 -128 -75 -285 41 -247 183 22 79 79 121 167 122 37 0 61 -6
85 -23z"/>
<path d="M2890 2171 c-254 -83 -328 -392 -136 -569 71 -65 125 -85 226 -85
101 0 155 20 226 85 136 126 143 344 14 477 -63 65 -131 94 -225 97 -44 2 -91
0 -105 -5z m188 -190 c44 -31 66 -76 66 -137 1 -127 -138 -204 -250 -139 -46
27 -84 90 -84 141 0 44 40 116 80 142 47 31 139 28 188 -7z"/>
<path d="M2462 1446 c-58 -56 -66 -68 -66 -101 0 -29 7 -43 28 -61 33 -29 61
-30 104 -4 32 20 32 20 65 0 42 -26 70 -25 103 4 21 18 28 32 28 61 0 33 -8
45 -66 101 -53 52 -72 64 -98 64 -26 0 -45 -12 -98 -64z"/>
</g>
</svg>
