<?xml version="1.0" standalone="no"?>
<!DOCTYPE svg PUBLIC "-//W3C//DTD SVG 20010904//EN"
 "http://www.w3.org/TR/2001/REC-SVG-20010904/DTD/svg10.dtd">
<svg version="1.0" xmlns="http://www.w3.org/2000/svg"
 width="512.000000pt" height="512.000000pt" viewBox="0 0 512.000000 512.000000"
 preserveAspectRatio="xMidYMid meet">

<g transform="translate(0.000000,512.000000) scale(0.100000,-0.100000)"
fill="#000000" stroke="none">
<path d="M29 5091 c-16 -16 -29 -38 -29 -49 0 -11 88 -323 195 -694 l195 -673
83 -80 c45 -45 588 -550 1206 -1123 849 -788 1129 -1042 1148 -1042 86 0 247
-59 331 -121 l43 -32 -95 -97 c-174 -177 -171 -234 23 -423 105 -103 144 -127
204 -127 32 0 91 30 127 66 l36 34 39 -36 c71 -65 109 -85 174 -91 78 -7 139
10 191 55 l42 35 164 -164 c159 -159 165 -166 154 -193 -5 -15 -10 -53 -10
-85 0 -185 202 -308 366 -223 48 25 456 434 479 481 41 82 26 199 -35 273 -60
73 -191 110 -276 78 -27 -11 -34 -5 -192 153 l-164 164 23 44 c18 34 23 60 23
114 0 81 -21 130 -86 201 l-41 45 56 57 c54 55 87 112 87 149 0 59 -24 98
-126 203 -111 115 -165 150 -228 150 -56 0 -92 -23 -197 -127 l-97 -96 -32 44
c-51 69 -90 160 -107 251 -9 46 -19 92 -23 103 -6 17 -2164 2351 -2217 2397
-10 10 -96 40 -189 67 -713 208 -1178 341 -1195 341 -11 0 -34 -13 -50 -29z
m824 -368 l509 -148 1079 -1163 1080 -1163 10 -57 c23 -120 95 -278 166 -363
l26 -30 -69 -70 -69 -69 -1000 999 c-664 664 -1009 1002 -1027 1006 -58 14
-118 -44 -104 -101 5 -21 286 -308 1007 -1029 l999 -1000 -69 -69 -68 -68 -54
41 c-81 62 -203 118 -308 142 l-93 22 -1162 1078 -1161 1079 -149 511 c-82
282 -156 540 -166 575 l-18 62 66 -19 c37 -10 296 -85 575 -166z m3377 -2848
l85 -85 -493 -492 -492 -493 -90 90 -90 90 487 487 c269 269 493 488 498 488
6 0 49 -38 95 -85z m35 -465 c31 -31 39 -48 39 -76 0 -33 -17 -53 -265 -300
-304 -303 -294 -297 -375 -222 l-45 42 298 298 c164 164 300 298 303 298 3 0
24 -18 45 -40z m205 -515 l155 -155 -123 -122 -122 -123 -155 155 c-85 85
-155 159 -155 165 0 13 222 235 235 235 6 0 80 -70 165 -155z m449 -212 c12
-10 24 -35 28 -56 l6 -38 -204 -205 c-191 -191 -206 -204 -240 -204 -48 0 -78
26 -86 73 l-6 39 204 204 c191 190 207 204 241 204 20 0 45 -8 57 -17z"/>
<path d="M625 4495 c-18 -17 -25 -35 -25 -62 0 -36 12 -50 273 -310 188 -188
281 -274 301 -279 58 -14 116 44 102 102 -5 20 -91 113 -279 302 -260 260
-274 272 -310 272 -27 0 -45 -7 -62 -25z"/>
</g>
</svg>
